<svg width="32" height="33" viewBox="0 0 32 33" fill="none" xmlns="http://www.w3.org/2000/svg">
<path d="M28 2.08072C28.5304 2.08072 29.0391 2.29143 29.4142 2.66651C29.7893 3.04158 30 3.55029 30 4.08072V28.0807C30 28.6112 29.7893 29.1199 29.4142 29.4949C29.0391 29.87 28.5304 30.0807 28 30.0807H4C3.46957 30.0807 2.96086 29.87 2.58579 29.4949C2.21071 29.1199 2 28.6112 2 28.0807V4.08072C2 3.55029 2.21071 3.04158 2.58579 2.66651C2.96086 2.29143 3.46957 2.08072 4 2.08072H28ZM4 0.080719C2.93913 0.080719 1.92172 0.502146 1.17157 1.25229C0.421427 2.00244 0 3.01985 0 4.08072L0 28.0807C0 29.1416 0.421427 30.159 1.17157 30.9091C1.92172 31.6593 2.93913 32.0807 4 32.0807H28C29.0609 32.0807 30.0783 31.6593 30.8284 30.9091C31.5786 30.159 32 29.1416 32 28.0807V4.08072C32 3.01985 31.5786 2.00244 30.8284 1.25229C30.0783 0.502146 29.0609 0.080719 28 0.080719L4 0.080719Z" fill="black" fill-opacity="0.3"/>
<path d="M16 8.08072C16.2652 8.08072 16.5196 8.18608 16.7071 8.37361C16.8946 8.56115 17 8.8155 17 9.08072V15.0807H23C23.2652 15.0807 23.5196 15.1861 23.7071 15.3736C23.8946 15.5611 24 15.8155 24 16.0807C24 16.3459 23.8946 16.6003 23.7071 16.7878C23.5196 16.9754 23.2652 17.0807 23 17.0807H17V23.0807C17 23.3459 16.8946 23.6003 16.7071 23.7878C16.5196 23.9754 16.2652 24.0807 16 24.0807C15.7348 24.0807 15.4804 23.9754 15.2929 23.7878C15.1054 23.6003 15 23.3459 15 23.0807V17.0807H9C8.73478 17.0807 8.48043 16.9754 8.29289 16.7878C8.10536 16.6003 8 16.3459 8 16.0807C8 15.8155 8.10536 15.5611 8.29289 15.3736C8.48043 15.1861 8.73478 15.0807 9 15.0807H15V9.08072C15 8.8155 15.1054 8.56115 15.2929 8.37361C15.4804 8.18608 15.7348 8.08072 16 8.08072Z" fill="black" fill-opacity="0.3"/>
</svg>
