<svg width="20" height="26" viewBox="0 0 20 26" fill="none" xmlns="http://www.w3.org/2000/svg">
<path d="M18.9571 5.08072H15.6999V2.58072C15.6999 1.47759 14.9696 0.580719 14.0714 0.580719H5.92851C5.03025 0.580719 4.29994 1.47759 4.29994 2.58072V5.08072H1.0428C0.592399 5.08072 0.228516 5.52759 0.228516 6.08072V7.08072C0.228516 7.21822 0.320123 7.33072 0.432087 7.33072H1.96905L2.59758 23.6745C2.63829 24.7401 3.35588 25.5807 4.2236 25.5807H15.7763C16.6465 25.5807 17.3616 24.7432 17.4023 23.6745L18.0308 7.33072H19.5678C19.6797 7.33072 19.7713 7.21822 19.7713 7.08072V6.08072C19.7713 5.52759 19.4075 5.08072 18.9571 5.08072ZM6.13208 2.83072H13.8678V5.08072H6.13208V2.83072ZM15.5803 23.3307H4.41954L3.80373 7.33072H16.1961L15.5803 23.3307Z" fill="black" fill-opacity="0.3"/>
</svg>
