<svg width="31" height="36" viewBox="0 0 31 36" fill="none" xmlns="http://www.w3.org/2000/svg">
<g clip-path="url(#clip0_564_3837)">
<path d="M6.45051 21.2129L21.8046 9.04708C22.4054 8.59184 23.1058 8.42589 23.7558 8.58476C24.4058 8.74362 24.9538 9.21467 25.2825 9.89705C25.6111 10.5794 25.6943 11.4189 25.5142 12.2357C25.334 13.0524 24.9049 13.7816 24.3187 14.2671L8.96263 26.4325C8.61231 26.7101 8.21243 26.8622 7.81339 26.8698L3.76414 26.9467L5.63111 22.3354C5.81506 21.881 6.10017 21.4905 6.45051 21.2129Z" fill="white" stroke="black" stroke-width="2" stroke-linecap="round" stroke-linejoin="round"/>
<path d="M19.0337 11.8601L21.1169 16.1871L19.0337 11.8601Z" fill="white"/>
<path d="M19.0337 11.8601L21.1169 16.1871" stroke="black" stroke-width="2"/>
</g>
<defs>
<clipPath id="clip0_564_3837">
<rect width="24" height="30" fill="white" transform="translate(6.72345 0.692139) rotate(12.9509)"/>
</clipPath>
</defs>
</svg>
