<svg width="20" height="26" viewBox="0 0 20 26" fill="none" xmlns="http://www.w3.org/2000/svg">
<path d="M5.71677 21.3281H14.2832L14.7558 8.32812H5.24412L5.71677 21.3281Z" fill="white"/>
<path d="M16.875 6.5H14.375V4.46875C14.375 3.57246 13.8145 2.84375 13.125 2.84375H6.87503C6.18558 2.84375 5.62503 3.57246 5.62503 4.46875V6.5H3.12503C2.77933 6.5 2.50003 6.86309 2.50003 7.3125V8.125C2.50003 8.23672 2.57035 8.32812 2.65628 8.32812H3.83597L4.31839 21.6074C4.34964 22.4732 4.90042 23.1562 5.56644 23.1562H14.4336C15.1016 23.1562 15.6504 22.4758 15.6817 21.6074L16.1641 8.32812H17.3438C17.4297 8.32812 17.5 8.23672 17.5 8.125V7.3125C17.5 6.86309 17.2207 6.5 16.875 6.5ZM7.03128 4.67188H12.9688V6.5H7.03128V4.67188ZM14.2832 21.3281H5.71683L5.24417 8.32812H14.7559L14.2832 21.3281Z" fill="black"/>
</svg>
