<svg width="20" height="25" viewBox="0 0 20 25" fill="none" xmlns="http://www.w3.org/2000/svg">
<path d="M8.05625 18.2625V9.92813H7.265C6.6983 10.3057 6.15062 10.7263 5.625 11.1875V12.2734C6.09375 11.8719 6.83625 11.3047 7.1975 11.0594H7.2125V18.2625H8.05625ZM9.54125 16.2234C9.6 17.2234 10.2837 18.4203 11.67 18.4203C13.2425 18.4203 14.17 16.7547 14.17 13.9344C14.17 10.9125 13.1937 9.76562 11.7287 9.76562C10.5712 9.76562 9.4825 10.8156 9.4825 12.5922C9.4825 14.4047 10.5125 15.3578 11.5775 15.3578C12.51 15.3578 13.115 14.7703 13.3062 14.1234H13.34C13.335 16.1797 12.7637 17.5047 11.7087 17.5047C10.8787 17.5047 10.4487 16.8016 10.3962 16.2234H9.54125ZM13.2325 12.6031C13.2325 13.6906 12.5337 14.4469 11.7525 14.4469C11.0012 14.4469 10.3225 13.8484 10.3225 12.5719C10.3225 11.2859 11.05 10.6812 11.7825 10.6812C12.5737 10.6812 13.2325 11.3031 13.2325 12.6031Z" fill="black" fill-opacity="0.5"/>
<path d="M4.375 0C4.54076 0 4.69973 0.08231 4.81694 0.228823C4.93415 0.375336 5 0.57405 5 0.78125V1.5625H15V0.78125C15 0.57405 15.0658 0.375336 15.1831 0.228823C15.3003 0.08231 15.4592 0 15.625 0C15.7908 0 15.9497 0.08231 16.0669 0.228823C16.1842 0.375336 16.25 0.57405 16.25 0.78125V1.5625H17.5C18.163 1.5625 18.7989 1.89174 19.2678 2.47779C19.7366 3.06384 20 3.8587 20 4.6875V21.875C20 22.7038 19.7366 23.4987 19.2678 24.0847C18.7989 24.6708 18.163 25 17.5 25H2.5C1.83696 25 1.20107 24.6708 0.732233 24.0847C0.263392 23.4987 0 22.7038 0 21.875V4.6875C0 3.8587 0.263392 3.06384 0.732233 2.47779C1.20107 1.89174 1.83696 1.5625 2.5 1.5625H3.75V0.78125C3.75 0.57405 3.81585 0.375336 3.93306 0.228823C4.05027 0.08231 4.20924 0 4.375 0V0ZM1.25 6.25V21.875C1.25 22.2894 1.3817 22.6868 1.61612 22.9799C1.85054 23.2729 2.16848 23.4375 2.5 23.4375H17.5C17.8315 23.4375 18.1495 23.2729 18.3839 22.9799C18.6183 22.6868 18.75 22.2894 18.75 21.875V6.25H1.25Z" fill="black" fill-opacity="0.5"/>
</svg>
