<svg width="20" height="20" viewBox="0 0 20 20" fill="none" xmlns="http://www.w3.org/2000/svg">
<g clip-path="url(#clip0_40_593)">
<path d="M12.708 8.5445e-07C11.3834 -0.000659413 10.0868 0.381355 8.97414 1.1001C7.86149 1.81885 6.98016 2.84372 6.43615 4.05146C5.89213 5.25921 5.7086 6.59839 5.90763 7.90797C6.10665 9.21754 6.67975 10.4417 7.55801 11.4333L0.833008 19.0667L1.76634 19.9L8.47467 12.3C9.33756 12.9749 10.3492 13.4339 11.4254 13.6388C12.5016 13.8436 13.6112 13.7883 14.6617 13.4775C15.7122 13.1667 16.6732 12.6093 17.4647 11.8519C18.2562 11.0945 18.8553 10.159 19.212 9.12318C19.5687 8.08738 19.6728 6.98134 19.5156 5.89717C19.3583 4.81301 18.9443 3.78212 18.3079 2.89036C17.6716 1.9986 16.8314 1.2718 15.8574 0.770487C14.8833 0.269175 13.8035 0.00786925 12.708 0.00833419V8.5445e-07ZM12.708 12.5C11.2162 12.5 9.78542 11.9074 8.73053 10.8525C7.67564 9.79758 7.08301 8.36684 7.08301 6.875C7.08301 5.38316 7.67564 3.95242 8.73053 2.89753C9.78542 1.84263 11.2162 1.25 12.708 1.25C14.1999 1.25 15.6306 1.84263 16.6855 2.89753C17.7404 3.95242 18.333 5.38316 18.333 6.875C18.333 8.36684 17.7404 9.79758 16.6855 10.8525C15.6306 11.9074 14.1999 12.5 12.708 12.5Z" fill="black" fill-opacity="0.5"/>
</g>
<defs>
<clipPath id="clip0_40_593">
<rect width="20" height="20" rx="5" fill="white"/>
</clipPath>
</defs>
</svg>
