<svg width="38" height="63" viewBox="0 0 38 63" fill="none" xmlns="http://www.w3.org/2000/svg">
<mask id="path-1-inside-1" fill="white">
<path fill-rule="evenodd" clip-rule="evenodd" d="M18.9242 15.6104C20.226 15.6088 21.4943 16.0235 22.5438 16.7938C23.5931 17.5641 24.3688 18.6495 24.7576 19.8917C24.7579 19.8926 24.7582 19.8935 24.7585 19.8944L28.0176 30.2719L35.4601 33.2682C36.8279 33.8189 37.4904 35.3742 36.9397 36.7421C36.389 38.11 34.8337 38.7724 33.4658 38.2217L24.8517 34.7538C24.11 34.4551 23.5411 33.8398 23.3015 33.077L19.6617 21.4872C19.613 21.3314 19.5157 21.1952 19.3841 21.0986C19.2525 21.002 19.0934 20.95 18.9301 20.9502L11.4942 20.9502C10.0196 20.9502 8.82422 19.7549 8.82422 18.2803C8.82422 16.8057 10.0196 15.6104 11.4942 15.6104H18.9242Z"/>
</mask>
<path fill-rule="evenodd" clip-rule="evenodd" d="M18.9242 15.6104C20.226 15.6088 21.4943 16.0235 22.5438 16.7938C23.5931 17.5641 24.3688 18.6495 24.7576 19.8917C24.7579 19.8926 24.7582 19.8935 24.7585 19.8944L28.0176 30.2719L35.4601 33.2682C36.8279 33.8189 37.4904 35.3742 36.9397 36.7421C36.389 38.11 34.8337 38.7724 33.4658 38.2217L24.8517 34.7538C24.11 34.4551 23.5411 33.8398 23.3015 33.077L19.6617 21.4872C19.613 21.3314 19.5157 21.1952 19.3841 21.0986C19.2525 21.002 19.0934 20.95 18.9301 20.9502L11.4942 20.9502C10.0196 20.9502 8.82422 19.7549 8.82422 18.2803C8.82422 16.8057 10.0196 15.6104 11.4942 15.6104H18.9242Z" fill="#F8F8F8"/>
<path d="M18.9242 15.6104V17.3578L18.9262 17.3578L18.9242 15.6104ZM22.5438 16.7938L23.5778 15.3851L23.5778 15.3851L22.5438 16.7938ZM24.7576 19.8917L23.0899 20.4137L23.0903 20.4148L24.7576 19.8917ZM24.7585 19.8944L23.09 20.414L23.0913 20.418L24.7585 19.8944ZM28.0176 30.2719L26.3504 30.7955C26.5072 31.2948 26.8796 31.6975 27.365 31.893L28.0176 30.2719ZM35.4601 33.2682L36.1127 31.6472H36.1127L35.4601 33.2682ZM36.9397 36.7421L38.5607 37.3947L38.5607 37.3947L36.9397 36.7421ZM33.4658 38.2217L32.8132 39.8428L33.4658 38.2217ZM24.8517 34.7538L25.5043 33.1327L25.5043 33.1327L24.8517 34.7538ZM23.3015 33.077L21.6343 33.6006L21.6343 33.6006L23.3015 33.077ZM19.6617 21.4872L17.9937 22.0084L17.9945 22.0108L19.6617 21.4872ZM19.3841 21.0986L18.3501 22.5073L18.3501 22.5073L19.3841 21.0986ZM18.9301 20.9502L18.9301 22.6977L18.9328 22.6977L18.9301 20.9502ZM11.4942 20.9502V22.6977L11.4942 22.6977L11.4942 20.9502ZM18.9262 17.3578C19.8554 17.3568 20.7607 17.6527 21.5098 18.2026L23.5778 15.3851C22.2279 14.3943 20.5966 13.8609 18.9222 13.8629L18.9262 17.3578ZM21.5098 18.2026C22.2588 18.7523 22.8124 19.5271 23.0899 20.4137L26.4253 19.3697C25.9252 17.7719 24.9275 16.3758 23.5778 15.3851L21.5098 18.2026ZM23.0903 20.4148L23.09 20.414L26.4269 19.3748C26.426 19.3719 26.4252 19.3692 26.425 19.3686L23.0903 20.4148ZM23.0913 20.418L26.3504 30.7955L29.6848 29.7483L26.4257 19.3708L23.0913 20.418ZM27.365 31.893L34.8074 34.8892L36.1127 31.6472L28.6703 28.6509L27.365 31.893ZM34.8074 34.8892C35.28 35.0795 35.5089 35.6169 35.3186 36.0895L38.5607 37.3947C39.4719 35.1316 38.3758 32.5583 36.1127 31.6472L34.8074 34.8892ZM35.3186 36.0895C35.1284 36.5621 34.591 36.791 34.1184 36.6007L32.8132 39.8428C35.0763 40.7539 37.6496 39.6579 38.5607 37.3947L35.3186 36.0895ZM34.1184 36.6007L25.5043 33.1327L24.1991 36.3748L32.8132 39.8428L34.1184 36.6007ZM25.5043 33.1327C25.248 33.0295 25.0515 32.817 24.9687 32.5534L21.6343 33.6006C22.0307 34.8627 22.9719 35.8807 24.1991 36.3748L25.5043 33.1327ZM24.9687 32.5534L21.3289 20.9636L17.9945 22.0108L21.6343 33.6006L24.9687 32.5534ZM21.3296 20.966C21.1697 20.4542 20.8503 20.0071 20.4181 19.6898L18.3501 22.5073C18.1811 22.3833 18.0562 22.2085 17.9937 22.0084L21.3296 20.966ZM20.4181 19.6898C19.9859 19.3726 19.4636 19.2019 18.9274 19.2028L18.9328 22.6977C18.7232 22.698 18.519 22.6313 18.3501 22.5073L20.4181 19.6898ZM18.9301 19.2028L11.4942 19.2028L11.4942 22.6977L18.9301 22.6977L18.9301 19.2028ZM11.4942 19.2028C10.9847 19.2028 10.5717 18.7898 10.5717 18.2803H7.07674C7.07674 20.72 9.05449 22.6977 11.4942 22.6977V19.2028ZM10.5717 18.2803C10.5717 17.7708 10.9847 17.3578 11.4942 17.3578V13.8629C9.05449 13.8629 7.07674 15.8406 7.07674 18.2803H10.5717ZM11.4942 17.3578H18.9242V13.8629H11.4942V17.3578Z" fill="#0069CC" mask="url(#path-1-inside-1)"/>
<path d="M8.73909 46.1552C8.83786 45.9981 8.88404 45.8136 8.87093 45.6285L8.12228 35.0587C8.11207 34.9145 8.11351 34.7698 8.12659 34.6258L9.20931 22.7088L9.44861 20.0748L9.60114 18.396C9.66747 17.6658 10.0294 16.9945 10.6029 16.5378C11.1764 16.081 11.9117 15.8786 12.6382 15.9774L19.5216 16.9133C20.255 17.013 20.9147 17.4109 21.345 18.013C21.7754 18.615 21.9383 19.368 21.7953 20.0941L21.5649 21.2639L20.1825 28.2817L18.762 35.4936C18.715 35.732 18.7695 35.9792 18.9122 36.1758L24.4696 43.8291C24.8027 44.288 24.9822 44.8404 24.9822 45.4075V59.4403C24.9822 60.9238 23.7795 62.1265 22.296 62.1265C20.8124 62.1265 19.6098 60.9238 19.6098 59.4403V46.5636C19.6098 46.3792 19.5514 46.1995 19.4431 46.0502L15.5236 40.6526C15.2945 40.337 14.8839 40.2115 14.5175 40.345C14.1511 40.4785 13.9175 40.8387 13.9451 41.2277L14.3121 46.4098C14.3524 46.9789 14.2104 47.5462 13.9068 48.0292L5.83455 60.8699C5.04498 62.1259 3.38674 62.504 2.13076 61.7144C0.874784 60.9249 0.496682 59.2666 1.28625 58.0106L8.73909 46.1552Z" fill="#F8F8F8" stroke="#0069CC" stroke-width="1.74748" stroke-linecap="round" stroke-linejoin="round"/>
<path fill-rule="evenodd" clip-rule="evenodd" d="M19.6744 2.94627C19.4985 2.9519 19.3225 2.96186 19.1467 2.97615L18.9492 0.547391C19.1649 0.529857 19.3807 0.517648 19.5965 0.510742L19.6744 2.94627ZM21.7809 3.08609C21.4332 3.02835 21.0828 2.98773 20.7311 2.96439L20.8925 0.532961C21.3238 0.561594 21.7536 0.611409 22.18 0.682225L21.7809 3.08609ZM23.3206 3.46002C23.1527 3.40588 22.9836 3.35593 22.8137 3.3102L23.4467 0.957095C23.6552 1.01319 23.8625 1.07445 24.0684 1.14085C24.2744 1.20725 24.4784 1.27864 24.6804 1.35492L23.8195 3.63456C23.6548 3.57237 23.4885 3.51416 23.3206 3.46002ZM25.7117 4.57056C25.4126 4.38403 25.1046 4.21231 24.7886 4.05603L25.869 1.87186C26.2565 2.06354 26.6344 2.27415 27.0012 2.50292L25.7117 4.57056ZM26.9908 5.50572C26.8564 5.3914 26.7194 5.28052 26.5799 5.17317L28.066 3.24202C28.2371 3.37369 28.4052 3.50968 28.5699 3.6499C28.7347 3.79011 28.8958 3.9342 29.0532 4.08203L27.3848 5.85805C27.2565 5.73753 27.1251 5.62004 26.9908 5.50572ZM28.7742 7.44747C28.5694 7.16061 28.3506 6.88398 28.1186 6.6186L29.9532 5.01484C30.2377 5.34033 30.5061 5.67961 30.7573 6.03144L28.7742 7.44747ZM29.5975 8.80123C29.5172 8.64416 29.4331 8.48927 29.3453 8.33666L31.4578 7.12204C31.5654 7.30921 31.6686 7.49918 31.7671 7.69182C31.8656 7.88445 31.9592 8.07928 32.0479 8.2761L29.8265 9.27761C29.7541 9.11714 29.6778 8.95829 29.5975 8.80123ZM30.5011 11.278C30.4218 10.9346 30.3256 10.5952 30.213 10.2612L32.522 9.48249C32.6602 9.89215 32.7781 10.3083 32.8754 10.7296L30.5011 11.278ZM30.7431 12.8439C30.7291 12.668 30.7107 12.4927 30.6881 12.3181L33.1047 12.0053C33.1325 12.2194 33.1549 12.4344 33.1721 12.6501L30.7431 12.8439Z" fill="#0069CC"/>
<path d="M22.5796 26.7852L22.5796 26.7852L22.5779 26.7864C21.7155 27.395 20.6945 27.7395 19.6396 27.7778C18.5914 27.8159 17.5548 27.55 16.6545 27.0125L16.6545 27.0124L16.6449 27.0069L9.86686 23.0757C9.00874 22.5779 8.71656 21.4788 9.21426 20.6207C9.71197 19.7626 10.8111 19.4704 11.6692 19.9681L18.4639 23.909L18.464 23.909L18.4897 23.9242L18.4897 23.9242C18.7968 24.1092 19.151 24.2008 19.5093 24.1878C19.8673 24.1748 20.2138 24.0579 20.5065 23.8513C20.5066 23.8512 20.5067 23.8512 20.5068 23.8511C20.5069 23.851 20.5069 23.851 20.507 23.851L33.4275 14.7403C34.2382 14.1686 35.3589 14.3624 35.9305 15.1731L36.6446 14.6696L35.9305 15.1731C36.5022 15.9839 36.3084 17.1045 35.4977 17.6762L22.5808 26.7843L22.5802 26.7848L22.5796 26.7852Z" fill="#F8F8F8" stroke="#0069CC" stroke-width="1.74748" stroke-linecap="round" stroke-linejoin="round"/>
<path d="M26.5612 12.675C26.5612 15.8671 23.9735 18.4548 20.7814 18.4548C17.5894 18.4548 15.0017 15.8671 15.0017 12.675C15.0017 9.48292 17.5894 6.89522 20.7814 6.89522C23.9735 6.89522 26.5612 9.48292 26.5612 12.675Z" fill="#F8F8F8" stroke="#0069CC" stroke-width="1.74748"/>
</svg>
