<svg width="45" height="43" viewBox="0 0 45 43" fill="none" xmlns="http://www.w3.org/2000/svg">
<path d="M39.2154 27.3158C39.2178 28.5886 38.7125 29.8094 37.8128 30.7068C37.6073 30.9075 37.3334 31.0185 37.0477 31.0208C36.6108 31.0232 36.2165 30.7587 36.0488 30.3573C35.8812 29.9535 35.9756 29.4883 36.285 29.1789C37.3098 28.147 37.3098 26.4822 36.285 25.4503C35.8623 25.0299 35.8623 24.3451 36.285 23.9225C36.7053 23.5021 37.3901 23.5021 37.8128 23.9225C38.7125 24.8222 39.2178 26.043 39.2154 27.3158L39.2154 27.3158Z" fill="#0069CC"/>
<path d="M18.3441 17.7927L14.6084 14.057L14.6627 14.1042L18.3441 17.7927Z" fill="#0069CC"/>
<path d="M40.1508 17.867C39.9501 17.6308 39.7376 17.4041 39.5179 17.1916L32.7854 10.4615C31.5551 9.23117 29.6589 8.96434 28.1335 9.80504L23.0423 4.70913H23.0446C21.3916 3.06798 18.7233 3.06798 17.0703 4.70913C16.5508 5.22392 16.1777 5.8686 15.9888 6.57462C14.2578 5.1176 11.6863 5.28294 10.1585 6.94772C8.63067 8.61486 8.68731 11.1911 10.2883 12.7898L10.5316 13.0331V13.0307C9.08876 13.4392 7.97179 14.5798 7.59397 16.0297C7.21614 17.4795 7.63175 19.0192 8.68966 20.0818L9.42403 20.8162C8.72508 21.0051 8.08985 21.3782 7.58212 21.893C5.94333 23.5436 5.94333 26.2072 7.58212 27.8579L18.2368 38.5125C21.0775 41.3698 24.9336 42.9826 28.9621 42.9992H29.0448C33.0214 43.0133 36.84 41.436 39.6474 38.6188C42.3631 35.8796 43.9286 32.203 44.0231 28.3444C44.1176 24.4859 42.7314 20.7359 40.1505 17.8669L40.1508 17.867ZM38.0964 37.0743C35.6807 39.5089 32.3795 40.8597 28.9507 40.8219C25.4912 40.8124 22.1782 39.4286 19.7414 36.9751L9.08677 26.3205C8.70186 25.9332 8.48698 25.409 8.49406 24.8635C8.48934 24.3156 8.70186 23.7891 9.08677 23.4018C9.9062 22.632 11.1837 22.632 12.0055 23.4018L19.458 30.8428C19.883 31.223 20.5324 31.2064 20.9385 30.8026C21.3423 30.3965 21.3589 29.7471 20.9787 29.322L13.5546 21.8931L10.2156 18.5541H10.218C9.41274 17.7489 9.41274 16.443 10.218 15.6354C11.035 14.8585 12.3173 14.8585 13.1366 15.6354L22.28 24.7812C22.7027 25.2015 23.3851 25.1992 23.8054 24.7788C24.2257 24.3562 24.2234 23.6737 23.8007 23.2534L11.8095 11.2622C11.0113 10.4522 11.0113 9.15342 11.8095 8.34349C12.6312 7.56898 13.9135 7.56898 14.7329 8.34349L25.1511 18.7618C25.5738 19.1821 26.2563 19.1821 26.6789 18.7618C27.0993 18.3391 27.0993 17.6566 26.6789 17.234L21.3516 11.9066L18.5982 9.1556C17.793 8.34802 17.793 7.04214 18.5982 6.23692C19.4153 5.46 20.6999 5.46 21.5169 6.23692L26.6081 11.3328C25.7674 12.8559 26.0343 14.7521 27.2645 15.9848L30.0581 18.7783C28.3012 21.024 28.3555 24.1954 30.1879 26.3795C30.2092 26.4055 30.2328 26.4291 30.2588 26.4504C30.6484 26.8495 31.2813 26.8802 31.7087 26.5212C31.9306 26.337 32.0676 26.0749 32.0936 25.7892C32.1196 25.5035 32.0298 25.2201 31.8456 25.0005C30.5422 23.4467 30.6507 21.1538 32.0936 19.7322C32.1314 19.6921 32.1691 19.6543 32.2116 19.6189C32.462 19.43 32.6178 19.1419 32.6391 18.8302C32.6603 18.5185 32.5446 18.2139 32.325 17.9919L28.7734 14.4404C28.2846 13.7343 28.372 12.7779 28.9789 12.1734C29.5881 11.5665 30.5421 11.4815 31.2482 11.9727L37.9596 18.7143C38.1437 18.8985 38.3138 19.0803 38.4932 19.307V19.3046C40.7035 21.7605 41.896 24.9649 41.8204 28.2684C41.7472 31.572 40.4154 34.7223 38.0965 37.0738L38.0964 37.0743Z" fill="#0069CC"/>
<path d="M39.2154 27.3158C39.2178 28.5886 38.7125 29.8094 37.8128 30.7068C37.6073 30.9075 37.3334 31.0185 37.0477 31.0208C36.6108 31.0232 36.2165 30.7587 36.0488 30.3573C35.8812 29.9535 35.9756 29.4883 36.285 29.1789C37.3098 28.147 37.3098 26.4822 36.285 25.4503C35.8623 25.0299 35.8623 24.3451 36.285 23.9225C36.7053 23.5021 37.3901 23.5021 37.8128 23.9225C38.7125 24.8222 39.2178 26.043 39.2154 27.3158L39.2154 27.3158Z" fill="#0069CC"/>
<path d="M34.8162 9.82858C34.2211 9.82858 33.7394 9.34685 33.7394 8.75181C33.7371 7.29958 32.5587 6.12119 31.1064 6.11883C30.509 6.11883 30.0249 5.63474 30.0249 5.03729C30.0249 4.44221 30.509 3.9581 31.1064 3.9581C33.7512 3.96046 35.8977 6.10462 35.9001 8.75175C35.9001 9.03748 35.7868 9.31377 35.5813 9.51683C35.3782 9.71755 35.1043 9.8309 34.8162 9.82853L34.8162 9.82858Z" fill="#0069CC"/>
<path d="M38.5097 9.6052C37.9147 9.6052 37.433 9.12347 37.433 8.52843C37.4306 5.15636 34.6961 2.424 31.3243 2.424C30.7292 2.424 30.2451 1.94227 30.2451 1.34481C30.2451 0.747378 30.7292 0.265625 31.3243 0.265625C35.9007 0.265625 39.6129 3.97537 39.6129 8.55176C39.6058 8.83749 39.4853 9.10906 39.2799 9.30741C39.0721 9.50341 38.7958 9.61203 38.5101 9.60495L38.5097 9.6052Z" fill="#0069CC"/>
<path d="M8.51281 36.1365C5.86568 36.1317 3.72151 33.9876 3.7168 31.3404C3.7168 30.7454 4.20088 30.2613 4.79834 30.2613C5.39578 30.2613 5.87753 30.7453 5.87753 31.3404C5.88225 32.795 7.05821 33.9711 8.51287 33.9758C9.10794 33.9758 9.59205 34.4599 9.59205 35.055C9.59205 35.6524 9.10797 36.1365 8.51287 36.1365L8.51281 36.1365Z" fill="#0069CC"/>
<path d="M8.28855 39.8284C3.70981 39.8284 0 36.1187 0 31.5423C0 30.9449 0.484086 30.4608 1.08154 30.4608C1.67662 30.4608 2.16073 30.9448 2.16073 31.5423C2.15601 33.1669 2.80067 34.7278 3.95065 35.8778C5.10063 37.0279 6.66155 37.6725 8.28855 37.6678C8.88363 37.6678 9.36774 38.1519 9.36774 38.747C9.36774 39.3444 8.88365 39.8285 8.28855 39.8285V39.8284Z" fill="#0069CC"/>
</svg>
