<svg width="44" height="36" viewBox="0 0 44 36" fill="none" xmlns="http://www.w3.org/2000/svg">
<path d="M11.5961 31.2574H19.9427C21.3225 31.2574 21.3225 29.1569 19.9427 29.1569H7.0076C5.62771 29.1569 5.62957 27.0712 7.0076 27.0712H19.9427C21.3225 27.0712 21.3225 24.9706 19.9427 24.9706H4.59059C3.21255 24.9706 3.21255 22.8849 4.59059 22.8849H19.9427C21.3225 22.8849 21.3225 20.7844 19.9427 20.7844H8.3186C7.35585 20.7676 7.0802 19.7229 7.49362 19.1196L7.57928 19.0115C7.75247 18.8235 8.00573 18.6987 8.34281 18.6987H19.9445C21.3244 18.6987 21.3244 16.5981 19.9445 16.5981H15.1662C13.8105 16.5758 13.8161 14.5124 15.1886 14.5124H26.4622L32.7045 19.14C32.8889 19.3002 33.131 19.397 33.3935 19.397H42.8666C44.2465 19.397 44.2465 17.2983 42.8666 17.2983H33.7344L27.4254 12.6223C27.2373 12.4826 27.0194 12.4156 26.8015 12.4156L19.8275 12.4137C19.5966 12.3355 19.3545 12.2796 19.1031 12.248C18.5146 10.6744 17.0677 9.57941 15.3879 9.44535C14.0918 9.34293 12.8199 9.83083 11.9186 10.7657C9.89069 10.7228 8.13833 12.0934 7.63738 13.9929C7.04147 13.1679 6.15319 12.5608 5.1122 12.3355C7.14016 12.1735 8.81056 10.557 8.97632 8.46763C9.16254 6.15102 7.4251 4.11191 5.10849 3.9257C2.78815 3.74134 0.754623 5.47692 0.568413 7.7954C0.398951 9.9258 1.84404 11.8141 3.87757 12.2536C1.84962 12.4156 0.181071 14.032 0.0134535 16.1233C-0.170907 18.4455 1.56096 20.4771 3.88129 20.6633C4.3748 20.7024 4.85339 20.6559 5.3059 20.533C5.32638 20.6168 5.35059 20.7006 5.37852 20.7844H4.58706C0.631691 20.7844 0.419405 26.5089 4.05818 27.0319C3.36358 29.0729 4.6988 31.2536 7.00607 31.2536H8.63553C7.96887 33.289 9.3059 35.4398 11.5946 35.4398H27.9373C28.103 35.4398 28.2595 35.4007 28.3991 35.3337L35.684 32.4193H42.9651C44.345 32.4193 44.345 30.3187 42.9651 30.3187L35.49 30.3224C35.3596 30.3224 35.2274 30.3467 35.1008 30.3988L27.7449 33.3411H11.5976C10.2177 33.3411 10.2196 31.2554 11.5976 31.2554L11.5961 31.2574ZM5.99836 17.6149C5.91456 17.708 5.83821 17.8086 5.76558 17.911C5.341 18.3635 4.72088 18.6261 4.05046 18.5721C2.88472 18.479 2.01507 17.4585 2.10817 16.2927C2.20128 15.1251 3.2199 14.2555 4.38941 14.3505C5.56074 14.4436 6.4248 15.4585 6.3317 16.6317C6.3019 16.9967 6.18272 17.3319 5.99836 17.6168V17.6149ZM4.94436 6.02278C6.11568 6.11589 6.98162 7.13079 6.88665 8.30402C6.79354 9.47162 5.77492 10.3394 4.60541 10.2463C3.43967 10.1532 2.57002 9.13272 2.66312 7.96697C2.75623 6.79937 3.773 5.92972 4.94246 6.02469L4.94436 6.02278ZM16.8273 12.4157H15.1885C12.8999 12.4157 11.5609 14.5666 12.2295 16.602H10.1699C9.77323 16.1625 9.55347 15.5665 9.60376 14.926C9.7006 13.723 10.8533 12.6857 12.0861 12.8794C12.5349 12.9445 12.9315 12.8775 13.2239 12.4678C13.6839 11.8253 14.4381 11.479 15.2239 11.5404C15.8757 11.5926 16.453 11.9222 16.8291 12.4157L16.8273 12.4157ZM21.4419 6.06759C19.9428 5.94841 18.6281 7.06577 18.5089 8.5667C18.3897 10.0676 19.5071 11.3805 21.008 11.4997C22.5089 11.6189 23.8218 10.5015 23.941 9.00057C24.0602 7.5015 22.9428 6.18678 21.4419 6.06759ZM21.2743 8.16072C21.6188 8.18865 21.8758 8.48847 21.8478 8.833C21.8199 9.17751 21.5182 9.43449 21.1737 9.40655C20.8292 9.37861 20.5722 9.07694 20.6001 8.73427C20.6281 8.38976 20.9298 8.13278 21.2724 8.16072H21.2743ZM14.4175 0.456788C12.0972 0.272428 10.0636 2.00801 9.87742 4.32649C9.69306 6.64868 11.4249 8.68035 13.7453 8.86656C16.0656 9.05092 18.101 7.31533 18.2853 4.99686C18.4716 2.68025 16.7341 0.641139 14.4175 0.454929V0.456788ZM14.2499 2.54991C15.4212 2.64302 16.2871 3.65978 16.1922 4.83115C16.0991 5.99875 15.0805 6.86654 13.9109 6.77344C12.7452 6.68033 11.8756 5.65799 11.9687 4.4941C12.0618 3.3265 13.0785 2.45685 14.248 2.54996L14.2499 2.54991Z" fill="#0069CC"/>
</svg>
