<svg width="50" height="42" viewBox="0 0 50 42" fill="none" xmlns="http://www.w3.org/2000/svg">
<path d="M7.44336 26.6525C7.44336 46.8155 42.6387 46.8155 42.6387 26.6525C42.6387 22.5486 41.457 19.758 38.7079 16.0935C38.3676 15.6398 36.924 13.7775 36.5528 13.2826C34.7545 10.8841 33.5872 8.91053 32.6695 6.46675C31.2733 2.74016 28.5655 0.254883 25.0411 0.254883C21.5373 0.254883 18.7881 2.7977 17.4128 6.46675C16.495 8.91058 15.3278 10.8842 13.5294 13.2826C13.1582 13.7775 11.7146 15.6398 11.3743 16.0935C8.62528 19.7582 7.44357 22.5488 7.44357 26.6525H7.44336ZM9.6418 26.6525C9.6418 23.0971 10.6461 20.7316 13.1354 17.4134C13.4591 16.9782 14.9028 15.116 15.2884 14.6025C17.2022 12.0494 18.4705 9.90661 19.4708 7.2402C20.5576 4.34265 22.5993 2.45359 25.0412 2.45359C27.5077 2.45359 29.504 4.287 30.6116 7.2402C31.6118 9.90677 32.8801 12.0495 34.794 14.6025C35.1796 15.116 36.6232 16.9782 36.947 17.4134C39.4362 20.7317 40.4405 23.0973 40.4405 26.6525C40.4405 43.8833 9.64201 43.8833 9.64201 26.6525H9.6418Z" fill="#0069CC"/>
<path d="M12.9413 29.951C13.5496 29.951 14.0425 28.4723 14.0425 26.6513C14.0425 24.8282 13.5496 23.3516 12.9413 23.3516C12.335 23.3516 11.8421 24.8282 11.8421 26.6513C11.8421 28.4723 12.335 29.951 12.9413 29.951ZM12.9413 27.7505C13.562 27.7505 13.9951 28.0165 14.2426 28.33C14.2879 28.3878 14.2776 28.3671 14.2508 28.2888C14.1271 27.9134 14.0425 27.3153 14.0425 26.6513C14.0425 25.9872 14.1271 25.3871 14.2508 25.0138C14.2776 24.9334 14.2879 24.9127 14.2426 24.9725C13.9951 25.2839 13.562 25.55 12.9413 25.55C12.3226 25.55 11.8874 25.284 11.642 24.9725C11.5967 24.9127 11.607 24.9334 11.6338 25.0138C11.7575 25.3871 11.8421 25.9872 11.8421 26.6513C11.8421 27.3153 11.7575 27.9134 11.6338 28.2888C11.607 28.3671 11.5967 28.3878 11.642 28.33C11.8875 28.0165 12.3226 27.7505 12.9413 27.7505Z" fill="#0069CC"/>
<path d="M37.1406 29.951C37.7469 29.951 38.2398 28.4723 38.2398 26.6513C38.2398 24.8282 37.7469 23.3516 37.1406 23.3516C36.5322 23.3516 36.0393 24.8282 36.0393 26.6513C36.0393 28.4723 36.5322 29.951 37.1406 29.951ZM37.1406 27.7505C37.7593 27.7505 38.1944 28.0165 38.4398 28.33C38.4852 28.3878 38.4749 28.3671 38.4481 28.2888C38.3243 27.9134 38.2398 27.3153 38.2398 26.6513C38.2398 25.9872 38.3243 25.3871 38.4481 25.0138C38.4749 24.9334 38.4852 24.9127 38.4398 24.9725C38.1944 25.2839 37.7592 25.55 37.1406 25.55C36.5198 25.55 36.0868 25.284 35.8393 24.9725C35.7939 24.9127 35.8042 24.9334 35.8311 25.0138C35.9548 25.3871 36.0393 25.9872 36.0393 26.6513C36.0393 27.3153 35.9548 27.9134 35.8311 28.2888C35.8042 28.3671 35.7939 28.3878 35.8393 28.33C36.0868 28.0165 36.5199 27.7505 37.1406 27.7505Z" fill="#0069CC"/>
<path d="M19.5411 34.3515H30.5415C31.1478 34.3515 31.6407 33.8586 31.6407 33.2523C31.6407 32.644 31.1478 32.1511 30.5415 32.1511H19.5411C18.9348 32.1511 18.4419 32.644 18.4419 33.2523C18.4419 33.8586 18.9348 34.3515 19.5411 34.3515Z" fill="#0069CC"/>
<path d="M17.341 27.751H32.7382C33.3465 27.751 33.8394 27.2581 33.8394 26.6518C33.8394 26.0434 33.3465 25.5505 32.7382 25.5505H17.341C16.7326 25.5505 16.2397 26.0434 16.2397 26.6518C16.2397 27.2581 16.7326 27.751 17.341 27.751V27.751Z" fill="#0069CC"/>
<path d="M19.5411 21.1519H30.5415C31.1478 21.1519 31.6407 20.659 31.6407 20.0527C31.6407 19.4444 31.1478 18.9515 30.5415 18.9515H19.5411C18.9348 18.9515 18.4419 19.4444 18.4419 20.0527C18.4419 20.659 18.9348 21.1519 19.5411 21.1519Z" fill="#0069CC"/>
<path d="M22.7837 8.30282C23.5488 6.00539 26.531 6.00539 27.2961 8.30282C27.4879 8.87818 28.1107 9.18962 28.6881 8.99782C29.2635 8.80602 29.5749 8.18319 29.3831 7.60577C27.9498 3.30381 22.1301 3.30381 20.6967 7.60577C20.5049 8.18324 20.8164 8.80601 21.3917 8.99782C21.9692 9.18961 22.592 8.8782 22.7838 8.30282H22.7837Z" fill="#0069CC"/>
<path d="M12.4497 25.6696C12.0517 25.8675 11.7402 25.8799 11.2948 25.7376C11.0288 25.6531 11.1979 25.7273 10.111 25.2282C8.69216 24.5786 7.64656 24.3167 6.23181 24.459C5.68944 24.5126 5.20067 24.5972 4.62525 24.725C3.12804 25.055 3.07852 25.0591 2.85166 24.8921C2.81247 24.8612 2.7671 24.822 2.71967 24.7745C0.424298 22.4792 6.51432 16.6034 14.1778 15.6447L13.9056 13.4628C4.77571 14.6032 -3.03004 22.137 1.16453 26.3295C1.2862 26.4532 1.412 26.5625 1.54193 26.6574C2.53595 27.3956 2.83293 27.3751 5.09942 26.8718C5.59849 26.7625 6.00475 26.6924 6.45023 26.647C7.40302 26.5522 8.09802 26.7254 9.19309 27.2286C10.4429 27.8019 10.2263 27.7071 10.6264 27.8329C11.5936 28.1402 12.4907 28.1072 13.4332 27.637L12.4497 25.6696Z" fill="#0069CC"/>
<path d="M36.9244 25.6696C37.3224 25.8675 37.6317 25.8799 38.0793 25.7376C38.3453 25.6531 38.1762 25.7273 39.263 25.2282C40.6798 24.5786 41.7255 24.3167 43.1402 24.459C43.6846 24.5126 44.1734 24.5972 44.7488 24.725C46.246 25.055 46.2935 25.0591 46.5204 24.8921C46.5616 24.8612 46.6049 24.822 46.6544 24.7745C48.9498 22.4792 42.8598 16.6034 35.1963 15.6447L35.4685 13.4628C44.5984 14.6032 52.4041 22.137 48.2095 26.3295C48.0879 26.4532 47.9621 26.5625 47.8321 26.6574C46.8381 27.3956 46.5411 27.3751 44.2747 26.8718C43.7756 26.7625 43.3672 26.6924 42.9218 26.647C41.971 26.5522 41.274 26.7254 40.181 27.2286C38.9312 27.8019 39.1457 27.7071 38.7456 27.8329C37.7804 28.1402 36.8813 28.1072 35.9409 27.637L36.9244 25.6696Z" fill="#0069CC"/>
</svg>
