<svg width="45" height="38" viewBox="0 0 45 38" fill="none" xmlns="http://www.w3.org/2000/svg">
<path d="M44.1944 20.8028L44.209 20.7924L37.5538 9.70127L37.5559 9.69919C37.3542 9.36643 36.9944 9.16055 36.6034 9.16055H32.2859L33.2592 3.81356H33.2571C33.334 3.39969 33.1697 2.97959 32.8328 2.72792C27.8935 -0.976059 25.0836 0.897758 22.6089 2.5553C20.1736 4.18373 17.8693 5.72271 12.7737 2.66553L12.7716 2.66345C12.3994 2.44091 11.9294 2.45548 11.5716 2.70296C11.2119 2.95045 11.033 3.38508 11.112 3.81351L12.0853 9.16051H7.76572C7.37473 9.16051 7.01492 9.3664 6.81319 9.69915L0.158059 20.7903L0.166378 20.8111V20.8132C0.0623931 20.9775 0.00623985 21.1667 0 21.3622V36.8916C0 37.1848 0.118546 37.4676 0.326516 37.6756C0.534492 37.8836 0.815253 38.0001 1.1106 38.0001H43.2583C43.5536 38.0001 43.8365 37.8836 44.0445 37.6756C44.2525 37.4677 44.3689 37.1848 44.3689 36.8916V21.3622C44.3627 21.1626 44.3024 20.9691 44.1942 20.8028L44.1944 20.8028ZM23.8404 4.39822C26.1135 2.87584 27.6525 1.84845 30.9507 4.10705L29.0228 14.7073H15.3462L13.6991 5.64785C18.6821 7.84819 21.5127 5.95772 23.8399 4.39791L23.8404 4.39822ZM8.39408 11.3797H12.487L13.0922 14.7073H11.0936C10.4801 14.7073 9.98301 15.2043 9.98301 15.8158C9.98301 16.4292 10.4801 16.9263 11.0936 16.9263H33.2759C33.8894 16.9263 34.3865 16.4293 34.3865 15.8158C34.3865 15.2043 33.8894 14.7073 33.2759 14.7073H31.2773L31.8825 11.3797H35.9754L41.2995 20.2539H3.06977L8.39408 11.3797ZM42.15 35.7811H2.21919V22.4709H42.15V35.7811Z" fill="#0069CC"/>
</svg>
