<svg height="380pt" viewBox="0 0 379 380" width="379pt" xmlns="http://www.w3.org/2000/svg"><path d="m0 0h378.550781c-.003906 126.515625.003907 253.03125-.003906 379.546875-126.179687.007813-252.367187 0-378.546875.003906zm327.757812 274.53125c-.015624.804688-.019531 1.613281-.003906 2.421875 1.808594-.011719 3.625-.003906 5.433594-.003906.011719 5.035156 0 10.070312.007812 15.109375.988282-.007813 1.976563-.007813 2.964844-.003906 0-5.035157-.003906-10.070313.003906-15.105469 1.8125 0 3.632813-.003907 5.445313 0-.003906-.804688-.003906-1.605469 0-2.410157-4.617187-.007812-9.234375.007813-13.851563-.007812m17.304688.003906c-.011719 5.839844-.011719 11.679688 0 17.519532h2.957031c.019531-4.785157-.03125-9.566407.03125-14.351563 1.980469 4.742187 3.769531 9.5625 5.660157 14.339844.632812.003906 1.269531.003906 1.914062.003906 1.90625-4.796875 3.722656-9.628906 5.679688-14.402344.035156 4.800781.007812 9.605469.019531 14.410157.980469-.003907 1.964843-.003907 2.949219.007812.035156-5.839844.003906-11.679688.015624-17.519531-1.5-.011719-3-.007813-4.496093 0-1.667969 4.386719-3.371094 8.761719-5.0625 13.140625-1.703125-4.386719-3.4375-8.761719-5.140625-13.148438-1.511719.003906-3.023438 0-4.527344 0m-300.128906 18.675782c-7.367188.296874-14.785156 3.636718-19.171875 9.710937-3.773438 5.089844-5.28125 11.558594-5.25 17.820313-.113281 5.894531 1.074219 11.964843 4.222656 17.015624 2.550781 4.132813 6.457031 7.375 10.949219 9.195313 5.414062 2.199219 11.484375 2.59375 17.1875 1.417969 5.289062-1.089844 10.296875-3.863282 13.742187-8.070313 3.109375-3.722656 4.910157-8.402343 5.644531-13.167969.792969-5.535156.582032-11.285156-1.050781-16.652343-1.53125-5.03125-4.636719-9.613281-8.953125-12.640625-4.996094-3.546875-11.265625-4.953125-17.320312-4.628906m50.421875 7.472656c.007812-2.046875.007812-4.09375 0-6.136719-4.410157 0-8.820313-.023437-13.230469.015625.023438 17.640625.003906 35.28125.011719 52.921875 4.726562.019531 9.453125 0 14.179687.011719.023438-11.710938-.027344-23.425782.027344-35.132813.578125-1.722656 2.15625-2.96875 3.730469-3.785156 3.613281-1.71875 7.707031-1.867187 11.632812-1.902344 0-4.375-.003906-8.75.003907-13.121093-6.1875-.578126-12.371094 2.484374-16.355469 7.128906m34.703125-5.695313c-4.8125 1.539063-9.105469 4.664063-12.003906 8.820313 3.128906 1.832031 6.289062 3.613281 9.441406 5.402344 2.6875-3.335938 6.660156-5.636719 10.957031-5.976563 3.074219-.265625 6.757813-.109375 8.953125 2.386719 1.554688 1.785156 1.101562 4.28125 1.160156 6.449218-7.21875.851563-14.503906 2.039063-21.230468 4.902344-3.796876 1.648438-7.5 4.011719-9.742188 7.597656-2.503906 4.023438-2.757812 9.167969-1.363281 13.625 1.132812 3.675782 3.859375 6.816407 7.367187 8.390626 4.019532 1.871093 8.617188 1.769531 12.902344 1.085937 4.273438-.714844 8.367188-2.382813 11.988281-4.761719.402344 1.527344.804688 3.050782 1.210938 4.582032 4.136719-.003907 8.273437 0 12.410156 0-.152344-12.234376-.054687-24.476563-.070313-36.710938.246094-3.605469-.433593-7.421875-2.695312-10.324219-2.941406-3.925781-7.8125-5.785156-12.503906-6.535156-5.578125-.800781-11.382813-.660156-16.78125 1.066406m69.050781-1.136719c-4.957031 1.023438-9.296875 3.8125-13.34375 6.734376-.40625-2.070313-.875-4.132813-1.242187-6.207032-3.863282.527344-7.730469 1.0625-11.59375 1.605469-.007813 17.144531 0 34.285156 0 51.425781 4.621093.003906 9.238281 0 13.863281 0 0-12.636718 0-25.269531 0-37.902344 3.273437-2.726562 7.019531-5.210937 11.339843-5.75 2.175782-.242187 4.730469-.113281 6.316407 1.609376 1.566406 1.832031 1.816406 4.375 1.890625 6.691406.007812 11.785156.003906 23.566406.003906 35.351562 4.648438.007813 9.296875 0 13.945312 0 0-12.535156 0-25.070312 0-37.605468-.054687-2.515626-.398437-5.050782-1.265624-7.417969-1.128907-3.183594-3.46875-5.9375-6.558594-7.335938-4.152344-1.886719-8.933594-2.039062-13.355469-1.199219m36.230469 7.703126c-4.25 5.753906-5.738282 13.109374-5.601563 20.15625.058594 6.429687 1.484375 13.160156 5.558594 18.285156 3.230469 4.167968 8.265625 6.738281 13.46875 7.285156 3.796875.363281 7.855469.203125 11.25-1.730469 2.359375-1.316406 4.019531-3.527343 5.414063-5.789062.109374 2.226562.03125 4.457031.054687 6.683593-.089844 2.949219-.519531 6.160157-2.558594 8.449219-1.859375 2.066407-4.757812 2.796875-7.445312 2.804688-2.824219.039062-5.875-.058594-8.320313-1.648438-1.21875-.785156-1.84375-2.160156-2.203125-3.511719-4.585937.738282-9.167969 1.480469-13.753906 2.21875.832031 4.28125 3.816406 7.914063 7.59375 9.96875 5.898437 3.28125 12.910156 3.644532 19.488281 3.011719 5.703125-.570312 11.726563-2.195312 15.792969-6.488281 3.644531-3.851562 4.785156-9.335938 4.867187-14.484375 0-17.460937 0-34.917969 0-52.378906-3.933593.023437-7.867187-.058594-11.796874.042969-.304688 1.949218-.6875 3.890624-1.027344 5.839843-1.21875-2.527343-3.59375-4.28125-6.140625-5.3125-3.347657-1.371093-7.039063-1.695312-10.628907-1.488281-5.578124.421875-10.75 3.582031-14.011718 8.085938m57.992187-.398438c-3.828125 4.558594-5.535156 10.53125-5.960937 16.386719-.410156 6.390625.1875 13.054687 3.105468 18.847656 2.261719 4.515625 6.144532 8.214844 10.84375 10.082031 6.035157 2.433594 12.808594 2.410156 19.097657 1.078125 6.15625-1.347656 11.949219-5.046875 15.082031-10.625-3.417969-1.878906-6.832031-3.777343-10.234375-5.683593-1.527344 2.191406-3.386719 4.242187-5.796875 5.457031-2.714844 1.382812-5.882812 1.558593-8.847656 1.128906-2.871094-.417969-5.585938-2-7.152344-4.472656-1.933594-3.039063-2.464844-6.75-2.488281-10.292969 11.671875.007812 23.347656 0 35.027343.003906.394532-4.660156-.050781-9.410156-1.390624-13.890625-1.472657-4.859375-4.464844-9.359375-8.785157-12.105469-5.296875-3.429687-11.914062-4.171874-18.0625-3.449218-5.503906.664062-10.878906 3.203125-14.4375 7.535156zm0 0" fill="#f60"/><path d="m304.21875 305.976562c1.6875-1.910156 4.203125-2.9375 6.714844-3.089843 3.203125-.238281 6.699218.660156 8.886718 3.148437 1.933594 2.152344 2.578126 5.128906 2.652344 7.953125-7.09375-.003906-14.1875.007813-21.28125-.007812.230469-2.867188 1.066406-5.824219 3.027344-8.003907zm0 0" fill="#f60"/><path d="m252.339844 303.488281c3.265625-.601562 6.820312.449219 9.132812 2.867188 2.71875 2.78125 3.824219 6.738281 4.058594 10.539062.109375 2.785157-.007812 5.589844-.449219 8.34375-.496093 2.902344-1.472656 5.871094-3.566406 8.015625-1.90625 1.941406-4.679687 2.828125-7.355469 2.761719-2.492187.078125-5.117187-.714844-6.84375-2.59375-2.320312-2.394531-3.089844-5.808594-3.464844-9.019531-.304687-3.269532-.394531-6.578125.035157-9.839844.40625-2.867188 1.292969-5.78125 3.207031-8.015625 1.332031-1.582031 3.210938-2.6875 5.246094-3.058594zm0 0" fill="#f60"/><path d="m44.363281 305.167969c3.382813-.503907 7.167969.054687 9.816407 2.378906 2.488281 2.144531 3.699218 5.382813 4.242187 8.546875.574219 3.558594.550781 7.222656-.140625 10.757812-.632812 3.105469-2.015625 6.238282-4.59375 8.195313-2.875 2.140625-6.730469 2.523437-10.160156 1.816406-2.800782-.570312-5.289063-2.394531-6.71875-4.871093-2.0625-3.585938-2.515625-7.84375-2.429688-11.914063.132813-3.65625.777344-7.460937 2.859375-10.546875 1.613281-2.398438 4.269531-3.988281 7.125-4.363281zm0 0" fill="#f60"/><path d="m135.722656 323.449219c3.953125-1.636719 8.214844-2.363281 12.4375-2.898438.015625 4.125-.007812 8.253907.011719 12.382813-3.53125 3.171875-8.035156 5.664062-12.890625 5.574218-1.628906.042969-3.242188-.652343-4.351562-1.835937-2.113282-2.378906-2.417969-6.144531-.78125-8.863281 1.21875-2.105469 3.402343-3.414063 5.574218-4.359375zm0 0" fill="#f60"/><path d="m378.550781 0h.320313v379.871094h-378.871094v-.320313c126.179688-.003906 252.367188.003907 378.546875-.003906.007813-126.515625 0-253.03125.003906-379.546875zm0 0" fill="#fed9bf"/><g fill="#fff"><path d="m327.757812 274.53125c4.617188.015625 9.234376 0 13.851563.007812-.003906.804688-.003906 1.605469 0 2.410157-1.8125-.003907-3.632813 0-5.445313 0-.007812 5.035156-.003906 10.070312-.003906 15.105469-.988281-.003907-1.976562-.003907-2.964844.003906-.007812-5.039063.003907-10.074219-.007812-15.109375-1.808594 0-3.625-.007813-5.433594.003906-.015625-.808594-.011718-1.617187.003906-2.421875zm0 0"/><path d="m345.0625 274.535156c1.503906 0 3.015625.003906 4.527344 0 1.703125 4.386719 3.4375 8.761719 5.140625 13.148438 1.691406-4.378906 3.394531-8.753906 5.0625-13.140625 1.496093-.007813 2.996093-.011719 4.496093 0-.011718 5.839843.019532 11.679687-.015624 17.519531-.984376-.011719-1.96875-.011719-2.949219-.007812-.011719-4.804688.015625-9.609376-.019531-14.410157-1.957032 4.773438-3.773438 9.605469-5.679688 14.402344-.644531 0-1.28125 0-1.914062-.003906-1.890626-4.777344-3.679688-9.597657-5.660157-14.339844-.0625 4.785156-.011719 9.566406-.03125 14.351563-.988281 0-1.972656 0-2.957031 0-.011719-5.839844-.011719-11.679688 0-17.519532zm0 0"/><path d="m44.933594 293.210938c6.054687-.324219 12.324218 1.082031 17.320312 4.628906 4.316406 3.027344 7.421875 7.609375 8.953125 12.640625 1.632813 5.367187 1.84375 11.117187 1.050781 16.652343-.734374 4.765626-2.535156 9.445313-5.644531 13.167969-3.445312 4.207031-8.453125 6.980469-13.742187 8.070313-5.703125 1.175781-11.773438.78125-17.1875-1.417969-4.492188-1.820313-8.398438-5.0625-10.949219-9.195313-3.148437-5.050781-4.335937-11.121093-4.222656-17.015624-.03125-6.261719 1.476562-12.730469 5.25-17.820313 4.386719-6.074219 11.804687-9.414063 19.171875-9.710937m-.570313 11.957031c-2.855469.375-5.511719 1.964843-7.125 4.363281-2.082031 3.085938-2.726562 6.890625-2.859375 10.546875-.085937 4.070313.367188 8.328125 2.429688 11.914063 1.429687 2.476562 3.917968 4.300781 6.71875 4.871093 3.429687.707031 7.285156.324219 10.160156-1.816406 2.578125-1.957031 3.960938-5.089844 4.59375-8.195313.691406-3.535156.714844-7.199218.140625-10.757812-.542969-3.164062-1.753906-6.402344-4.242187-8.546875-2.648438-2.324219-6.433594-2.882813-9.816407-2.378906zm0 0"/><path d="m95.355469 300.683594c3.984375-4.644532 10.167969-7.707032 16.355469-7.128906-.007813 4.371093-.003907 8.746093-.003907 13.121093-3.925781.035157-8.019531.183594-11.632812 1.902344-1.574219.816406-3.152344 2.0625-3.730469 3.785156-.054688 11.707031-.003906 23.421875-.027344 35.132813-4.726562-.011719-9.453125.007812-14.179687-.011719-.007813-17.640625.011719-35.28125-.011719-52.921875 4.410156-.039062 8.820312-.015625 13.230469-.015625.007812 2.042969.007812 4.089844 0 6.136719zm0 0"/><path d="m130.058594 294.988281c5.398437-1.726562 11.203125-1.867187 16.78125-1.066406 4.691406.75 9.5625 2.609375 12.503906 6.535156 2.261719 2.902344 2.941406 6.71875 2.695312 10.324219.015626 12.234375-.082031 24.476562.070313 36.710938-4.136719 0-8.273437-.003907-12.410156 0-.40625-1.53125-.808594-3.054688-1.210938-4.582032-3.621093 2.378906-7.714843 4.046875-11.988281 4.761719-4.285156.683594-8.882812.785156-12.902344-1.085937-3.507812-1.574219-6.234375-4.714844-7.367187-8.390626-1.394531-4.457031-1.140625-9.601562 1.363281-13.625 2.242188-3.585937 5.945312-5.949218 9.742188-7.597656 6.726562-2.863281 14.011718-4.050781 21.230468-4.902344-.058594-2.167968.394532-4.664062-1.160156-6.449218-2.195312-2.496094-5.878906-2.652344-8.953125-2.386719-4.296875.339844-8.269531 2.640625-10.957031 5.976563-3.152344-1.789063-6.3125-3.570313-9.441406-5.402344 2.898437-4.15625 7.191406-7.28125 12.003906-8.820313m5.664062 28.460938c-2.171875.945312-4.355468 2.253906-5.574218 4.359375-1.636719 2.71875-1.332032 6.484375.78125 8.863281 1.109374 1.183594 2.722656 1.878906 4.351562 1.835937 4.855469.089844 9.359375-2.402343 12.890625-5.574218-.019531-4.128906.003906-8.257813-.011719-12.382813-4.222656.535157-8.484375 1.261719-12.4375 2.898438zm0 0"/><path d="m199.109375 293.851562c4.421875-.839843 9.203125-.6875 13.355469 1.199219 3.089844 1.398438 5.429687 4.152344 6.558594 7.335938.867187 2.367187 1.210937 4.902343 1.265624 7.417969v37.605468c-4.648437 0-9.296874.007813-13.945312 0 0-11.785156.003906-23.566406-.003906-35.351562-.074219-2.316406-.324219-4.859375-1.890625-6.691406-1.585938-1.722657-4.140625-1.851563-6.316407-1.609376-4.320312.539063-8.066406 3.023438-11.339843 5.75v37.902344c-4.625 0-9.242188.003906-13.863281 0 0-17.140625-.007813-34.28125 0-51.425781 3.863281-.542969 7.730468-1.078125 11.59375-1.605469.367187 2.074219.835937 4.136719 1.242187 6.207032 4.046875-2.921876 8.386719-5.710938 13.34375-6.734376zm0 0"/><path d="m235.339844 301.554688c3.261718-4.503907 8.433594-7.664063 14.011718-8.085938 3.589844-.207031 7.28125.117188 10.628907 1.488281 2.546875 1.03125 4.921875 2.785157 6.140625 5.3125.339844-1.949219.722656-3.890625 1.027344-5.839843 3.929687-.101563 7.863281-.019532 11.796874-.042969v52.378906c-.082031 5.148437-1.222656 10.632813-4.867187 14.484375-4.066406 4.292969-10.089844 5.917969-15.792969 6.488281-6.578125.632813-13.589844.269531-19.488281-3.011719-3.777344-2.054687-6.761719-5.6875-7.59375-9.96875 4.585937-.738281 9.167969-1.480468 13.753906-2.21875.359375 1.351563.984375 2.726563 2.203125 3.511719 2.445313 1.589844 5.496094 1.6875 8.320313 1.648438 2.6875-.007813 5.585937-.738281 7.445312-2.804688 2.039063-2.289062 2.46875-5.5 2.558594-8.449219-.023437-2.226562.054687-4.457031-.054687-6.683593-1.394532 2.261719-3.054688 4.472656-5.414063 5.789062-3.394531 1.933594-7.453125 2.09375-11.25 1.730469-5.203125-.546875-10.238281-3.117188-13.46875-7.285156-4.074219-5.125-5.5-11.855469-5.558594-18.285156-.136719-7.046876 1.351563-14.402344 5.601563-20.15625m17 1.933593c-2.035156.371094-3.914063 1.476563-5.246094 3.058594-1.914062 2.234375-2.800781 5.148437-3.207031 8.015625-.429688 3.261719-.339844 6.570312-.035157 9.839844.375 3.210937 1.144532 6.625 3.464844 9.019531 1.726563 1.878906 4.351563 2.671875 6.84375 2.59375 2.675782.066406 5.449219-.820313 7.355469-2.761719 2.09375-2.144531 3.070313-5.113281 3.566406-8.015625.441407-2.753906.558594-5.558593.449219-8.34375-.234375-3.800781-1.339844-7.757812-4.058594-10.539062-2.3125-2.417969-5.867187-3.46875-9.132812-2.867188zm0 0"/><path d="m293.332031 301.15625c3.558594-4.332031 8.933594-6.871094 14.4375-7.535156 6.148438-.722656 12.765625.019531 18.0625 3.449218 4.320313 2.746094 7.3125 7.246094 8.785157 12.105469 1.339843 4.480469 1.785156 9.230469 1.390624 13.890625-11.679687-.003906-23.355468.003906-35.027343-.003906.023437 3.542969.554687 7.253906 2.488281 10.292969 1.566406 2.472656 4.28125 4.054687 7.152344 4.472656 2.964844.429687 6.132812.253906 8.847656-1.128906 2.410156-1.214844 4.269531-3.265625 5.796875-5.457031 3.402344 1.90625 6.816406 3.804687 10.234375 5.683593-3.132812 5.578125-8.925781 9.277344-15.082031 10.625-6.289063 1.332031-13.0625 1.355469-19.097657-1.078125-4.699218-1.867187-8.582031-5.566406-10.84375-10.082031-2.917968-5.792969-3.515624-12.457031-3.105468-18.847656.425781-5.855469 2.132812-11.828125 5.960937-16.386719m10.886719 4.820312c-1.960938 2.179688-2.796875 5.136719-3.027344 8.003907 7.09375.015625 14.1875.003906 21.28125.007812-.074218-2.824219-.71875-5.800781-2.652344-7.953125-2.1875-2.488281-5.683593-3.386718-8.886718-3.148437-2.511719.152343-5.027344 1.179687-6.714844 3.089843zm0 0"/></g></svg>